<svg xmlns="http://www.w3.org/2000/svg" version="1.0" viewBox="0 0 626 626"><path fill="#19105DFD" stroke="#19105DFD" d="M341 111.086c1.148.808.727.961-1.794.652-1.812-.223-3.514-.049-3.782.385-.268.434-1.222.508-2.12.163-1.217-.467-1.415-.265-.776.794.687 1.139.484 1.123-1.028-.08-1.098-.874-1.571-.979-1.133-.25.762 1.269-1.593 1.673-7.518 1.291-1.458-.094-2.947.308-3.309.894-.362.586-2.458 1.065-4.658 1.065-2.24 0-3.745.413-3.419.939.609.987-.148 1.093-7.463 1.053-3.33-.019-4.11.235-3 .976 1.087.726-.151 1.014-4.5 1.048-3.526.028-6.762.625-7.847 1.447-1.016.77-2.552 1.129-3.414.798-1.084-.415-1.328-.213-.791.655.549.888.084 1.199-1.586 1.06-4.631-.387-6.983.019-6.321 1.091.363.587.052.983-.691.881-.742-.102-2.925-.125-4.85-.051-2.652.101-3.136.369-2 1.103 1.116.721.539.973-2.25.985-2.062.008-3.75.465-3.75 1.015 0 .55-1.237 1.007-2.75 1.015-2.143.012-2.419.23-1.25.985 1.165.753.872.973-1.309.985-1.615.008-2.546.44-2.191 1.015.34.55-.309 1-1.441 1-1.132 0-2.059.45-2.059 1s-1.012 1.007-2.25 1.015c-1.819.013-1.963.201-.75.985 1.195.773.992.989-1 1.064-1.375.051-1.932.323-1.238.602.843.34.263 1.443-1.75 3.323-1.657 1.547-3.012 3.533-3.012 4.412 0 .88-.45 1.599-1 1.599s-1.007 1.688-1.015 3.75c-.012 2.866-.256 3.396-1.036 2.25-.725-1.066-.938.743-.735 6.252.217 5.868-.032 7.752-1.023 7.75-.72-.001-1.049.419-.731.933.318.515-.555 2.069-1.941 3.455-1.385 1.385-2.519 3.241-2.519 4.124 0 .882-.45 1.326-1 .986-.552-.341-1 .379-1 1.608 0 1.224-.293 1.932-.652 1.574-.851-.852-3.348 3.988-3.348 6.491 0 1.07-.45 1.667-1 1.327-.565-.349-1 .47-1 1.882 0 1.375-.4 2.747-.89 3.05-2.123 1.312-4.049 25.029-2.184 26.894.591.591 1.074 3.261 1.074 5.933 0 2.985.386 4.621 1 4.241.585-.362 1 .676 1 2.5 0 1.824.415 2.862 1 2.5.55-.34 1.056.084 1.125.941.269 3.352.4 3.7 1.125 2.976.413-.413.75 0 .75.916 0 .917.477 1.667 1.059 1.667s.781.45.441 1-.115 1 .5 1 .84.45.5 1c-.34.55-.029 1.007.691 1.015.951.011.899.281-.191.985-1.213.784-1.069.972.75.985 1.578.01 2.25.612 2.25 2.015 0 1.1.374 2 .831 2 .457 0 1.433 1.124 2.168 2.498.736 1.375 1.554 2.283 1.818 2.018.623-.623 5.18 4.665 5.182 6.013 0 .566.901 1.678 2.001 2.471 1.1.793 2.007 2.355 2.015 3.471.013 1.676.184 1.768.985.529.818-1.265.972-1.211.985.349.008 1.017 1.365 3.11 3.015 4.651 1.65 1.541 3 3.522 3 4.401 0 .88.395 1.599.879 1.599.483 0 1.438 1.35 2.121 3s1.638 3 2.121 3c.484 0 .879.659.879 1.465 0 .805.9 1.946 2 2.535 1.1.589 2 1.981 2 3.094 0 1.113.45 1.746 1 1.406.55-.34 1 .305 1 1.433 0 1.127.9 2.612 2 3.299 1.1.687 2 2.326 2 3.641 0 1.316.969 3.233 2.153 4.26 1.184 1.027 1.845 1.867 1.468 1.867s.454 2.041 1.847 4.535c1.393 2.495 2.532 5.222 2.532 6.059 0 .838.45 1.246 1 .906.589-.364 1.006.743 1.015 2.691.012 2.504.251 2.944.985 1.809.729-1.128.977-.631 1 2 .023 2.631.271 3.128 1 2 .706-1.093.978-.278 1 3 .022 3.278.294 4.093 1 3 .687-1.064.974.19.985 4.309.011 4.378.323 5.624 1.265 5.058.97-.583.989-.428.083.694-.905 1.12-.823 1.894.364 3.442 1.059 1.379 1.677 1.61 2.001.747.258-.687.908-1.25 1.444-1.25.537 0 .698.45.358 1-.34.55-.254 1 .191.999.445 0 .697 3.937.56 8.75a1195.19 1195.19 0 0 0-.322 14.194c-.049 3.694-.365 4.98-.985 4-.627-.991-.918.026-.929 3.248-.008 2.58-.465 4.969-1.015 5.309-.55.34-1 2.841-1 5.559 0 2.971-.445 4.941-1.117 4.941-.617 0-.887.878-.603 1.963.283 1.08-.115 2.485-.883 3.123-.768.637-1.397 2.202-1.397 3.477 0 1.276-.522 2.683-1.16 3.128-.881.614-.881.749 0 .559.638-.138 1.16.425 1.16 1.25s-.562 1.507-1.25 1.515c-.885.011-.838.276.159.908.775.49 2.087.632 2.914.315.98-.376 1.253-.17.782.592-.434.702-.1 1.17.836 1.17.857 0 1.559.45 1.559 1s1.688 1.007 3.75 1.015c2.789.012 3.366.264 2.25.985-1.138.736-.716.973 1.75.985 1.788.008 3.254.353 3.258.765.012 1.159 5.094 3.248 7.941 3.265 2.014.012 2.235.22 1.051.985-1.198.774-.997.996 1 1.1 1.375.072 3.4.058 4.5-.03 1.663-.133 1.747.014.5.87-1.259.864-1.178 1.034.5 1.058 1.1.016 3.125.27 4.5.564 2.177.465 2.112.345-.5-.932-2.762-1.351-2.817-1.474-.696-1.549 1.268-.044 3.743-1.429 5.5-3.076 1.758-1.648 3.759-2.998 4.446-3 .688-.003 1.25-.455 1.25-1.005 0-.55.659-1 1.465-1 .805 0 1.946-.9 2.535-2 .589-1.1 1.52-2 2.069-2 2.153 0 7.681-6.723 7.681-9.342 0-1.462-.394-2.658-.875-2.658s-.875-.9-.875-2-.45-2-1-2-1-.862-1-1.917c0-1.054-.506-2.085-1.125-2.291-.619-.207-1.125-1.586-1.125-3.065 0-1.48-.394-2.447-.875-2.15-.848.524-1.306-1.665-.927-4.427.102-.743-.294-1.054-.881-.691-.667.412-1.067-.487-1.067-2.4 0-1.682-.45-3.059-1-3.059s-1-1.377-1-3.059c0-1.785-.417-2.802-1-2.441-.605.374-1-1.009-1-3.5s-.395-3.874-1-3.5c-.55.34-1 .141-1-.441 0-.644 2.722-1.059 6.941-1.059 3.818 0 7.219-.45 7.559-1 .34-.55 1.743-1 3.118-1 1.412 0 2.231-.435 1.882-1-.34-.55-.109-1 .512-1 1.433 0 3.988-2.517 3.988-3.929 0-.589.366-1.071.813-1.071.448 0 1.432-1.575 2.187-3.5.755-1.925 1.739-3.5 2.187-3.5.447 0 .813-1.152.813-2.559 0-1.451.433-2.292 1-1.941.611.378 1-1.161 1-3.955 0-4.235 1.365-8.21 3.312-9.642.446-.329 3.146-.471 6-.317 4.948.267 5.003.244 1.188-.511-3.25-.643-2.277-.818 5.191-.933 5.055-.078 9.469-.592 9.809-1.142.34-.55 1.941-1 3.559-1s2.941-.45 2.941-1 1.35-1 3-1 3-.45 3-1 .927-1 2.059-1c1.132 0 1.811-.402 1.507-.893-.304-.492.517-1.162 1.824-1.49 2.733-.686 8.61-5.858 8.61-7.577 0-.637.45-.88 1-.54.55.34 1-.305 1-1.433 0-1.127.9-2.612 2-3.299 1.1-.687 2-2.041 2-3.009 0-.967.45-1.759 1-1.759s.947-.337.882-.75c-.357-2.26.248-4.288 1.118-3.75.604.373 1-.99 1-3.441 0-2.232.45-4.059 1-4.059.621 0 1-5.48 1-14.441 0-8.549-.408-14.693-1-15.059-1.704-1.053-1.11-5.979.895-7.425 1.043-.751 2.237-1.188 2.655-.97.418.217.89-.497 1.05-1.587.16-1.09.766-2.14 1.346-2.333.579-.193 1.054-1.413 1.054-2.709 0-1.297.45-2.636 1-2.976.55-.34 1-2.391 1-4.559s-.45-3.941-1-3.941-1-1.548-1-3.441c0-1.893-.45-3.719-1-4.059-.55-.34-1-1.716-1-3.059 0-1.343-.45-2.441-1-2.441s-1-1.152-1-2.559c0-1.451-.433-2.292-1-1.941-.569.352-1-.509-1-2 0-1.44-.403-2.369-.895-2.065-.832.515-2.08-1.405-2.652-4.081-.135-.631-1.192-2.093-2.349-3.25-1.157-1.157-2.104-2.779-2.104-3.604 0-.825-.45-1.5-1-1.5s-1-1.152-1-2.559c0-1.451.433-2.292 1-1.941.567.351 1-.49 1-1.941 0-1.407.45-2.559 1-2.559.6 0 1-4.024 1-10.071 0-7.647-.363-10.435-1.509-11.581-.83-.83-1.254-1.923-.941-2.429.312-.505.091-.919-.491-.919s-1.059-.695-1.059-1.545-1.012-2.629-2.25-3.952c-3.651-3.905-4.863-5.495-4.289-5.628.296-.069.167-.181-.288-.25-1.319-.199-7.699-6.913-7.423-7.811.138-.448-.2-.814-.75-.814-1.792 0-2.448-.437-6.361-4.234-2.123-2.061-4.264-3.498-4.757-3.193-.493.305-1.166-.15-1.496-1.01-.33-.859-1.142-1.563-1.804-1.563-.663 0-2.171-.9-3.352-2-1.18-1.1-2.84-2-3.688-2-.848 0-1.542-.45-1.542-1s-.702-1-1.559-1-1.262-.48-.9-1.067c.363-.587.052-.983-.691-.881-2.617.359-3.961-.063-3.35-1.052.34-.55-.309-1-1.441-1-1.132 0-2.059-.477-2.059-1.059s-.414-.803-.919-.491c-.506.313-1.599-.111-2.429-.941-.83-.83-2.216-1.509-3.081-1.509-.864 0-1.571-.45-1.571-1s-.9-1-2-1-2-.45-2-1-1.152-1-2.559-1c-1.558 0-2.301-.417-1.9-1.067.363-.587.052-.983-.691-.881-2.745.377-3.952-.078-3.245-1.222.489-.792.173-.959-.979-.517-1.054.405-1.918.089-2.271-.83-.313-.816-1.533-1.476-2.712-1.468-1.786.013-1.893.192-.643 1.071m-73 70.843c2.649 1.247 7.699 7.571 6.046 7.571-.62 0-.629.545-.025 1.5.522.825.955 1.13.964.679.008-.452.803-.027 1.765.944 1.52 1.533 1.535 1.684.113 1.146-1.242-.47-1.516-.158-1.136 1.295.275 1.052.928 1.649 1.45 1.326.579-.357.686.822.275 3.012-.434 2.316-.292 3.598.399 3.598.701 0 .925 2.342.645 6.75-.327 5.163-.21 6.045.501 3.75.733-2.368.85-1.67.555 3.315-.289 4.877-.04 6.444 1.092 6.879.806.309 1.391 1.517 1.3 2.684-.196 2.516.195 4.157.566 2.372.142-.687.585-.252.982.967.398 1.219 1.576 2.487 2.617 2.818 1.041.33 2.361 1.474 2.932 2.542.784 1.464 1.704 1.796 3.749 1.351 2.191-.477 2.423-.367 1.21.572-1.206.934-.944 1.04 1.334.541 1.821-.399 2.607-.255 2.199.405-.597.967 4.984.87 5.957-.103.318-.317.802-41.473.561-47.652-.028-.72-.45-1.063-.937-.761-.488.301-1.113-.318-1.39-1.377-.373-1.426-1.113-1.789-2.863-1.402-1.802.399-2.018.282-.913-.496 1.043-.733.202-.893-3-.571-3.292.331-3.928.202-2.448-.498 1.726-.816 1.556-.955-1.25-1.016-2.191-.047-3.25-.559-3.25-1.57 0-1.293 3.444-1.5 25-1.5s25 .207 25 1.5c0 1.005-1.072 1.533-3.25 1.6-3.11.095-3.142.136-.75.948 2.055.698 1.735.82-1.799.685-2.409-.093-3.948.22-3.5.71.446.489.025.598-.951.248-.962-.346-1.75-.166-1.75.399 0 .566-.45.75-1 .41-.575-.355-1.007.576-1.015 2.191-.013 2.246-.225 2.508-1.061 1.309-.782-1.122-.889-.704-.426 1.655.357 1.82.171 3.431-.439 3.809-.692.427-1.054 7.999-1.044 21.845.009 12.213.38 20.616.875 19.834.6-.946 1.067-1.021 1.544-.25.376.609 2.034 1.107 3.684 1.107 1.65 0 2.762-.385 2.471-.856-.291-.47.695-.66 2.191-.421 2.217.353 2.443.219 1.22-.726-1.218-.941-1.011-1.053 1.102-.596 1.43.309 2.93.233 3.333-.169.402-.403.132-.739-.602-.747-1.097-.013-1.1-.163-.016-.85.724-.46 1.624-.528 2-.152.375.376.683.084.683-.65 0-.733.675-1.333 1.5-1.333s1.5-.562 1.5-1.25c0-.687.45-1.349 1-1.47.55-.122.857-.842.683-1.601-.174-.759.121-1.109.657-.778.574.355.742-.284.409-1.556-.383-1.464-.197-1.931.578-1.452.808.499.976-.262.574-2.593-.431-2.495-.311-2.934.491-1.8.774 1.095.941-.39.618-5.5-.307-4.871-.184-6.087.406-4l.847 3 .119-3.809c.082-2.646-.234-3.591-1.037-3.096-.785.486-.879.269-.295-.676.473-.765.776-2.972.673-4.905-.149-2.831-.008-3.125.726-1.514.944 2.074 1.026 1.745 1.449-5.825.056-1.004.44-1.491.852-1.083.707.699 1.184-1.028.823-2.979-.244-1.318 4.066-5.613 5.633-5.613.746 0 1.605-.647 1.908-1.437.318-.827 1.223-1.179 2.133-.83.955.367 1.327.195.939-.433-.415-.67 1.481-1.088 5.335-1.175 4.814-.109 5.979.17 5.979 1.429 0 .928.47 1.274 1.155.851.729-.451.882-.274.415.481-.406.658-1.547.939-2.536.625-1.151-.365-2.078.069-2.579 1.209-.597 1.359-.809 1.425-.895.28-.085-1.142-.371-1.052-1.199.38-.597 1.034-.941 3.959-.763 6.5.273 3.905.193 4.156-.519 1.62-.614-2.187-.912-.02-1.1 8-.142 6.05-.174 12.8-.07 15 .148 3.163-.048 3.686-.939 2.5-.906-1.206-1.04-.961-.687 1.25.242 1.513.022 2.75-.489 2.75s-.679.788-.374 1.75c.642 2.022-6.462 11.895-8.274 11.5-.63-.137-1.146.227-1.146.809 0 .582-.45.781-1 .441s-1 .132-1 1.048c0 1.027-.544 1.457-1.417 1.122a1.53 1.53 0 0 0-1.967.887c-.302.787-1.351 1.363-2.332 1.279-3.555-.304-5.393.179-4.734 1.245.399.646-.081 1.003-1.191.885-4.662-.493-8.451.077-7.776 1.168.486.786-.264.993-2.441.674-1.839-.27-3.175-.015-3.221.615-.043.592-.306.515-.583-.173-.278-.687-1.255-1.243-2.171-1.235-1.295.012-1.369.204-.333.861 1.082.686 1.047.956-.186 1.429-.835.32-1.764.045-2.064-.611-.299-.657-.441 7.432-.314 17.975.221 18.438.317 19.263 2.517 21.605 1.644 1.749 3.051 2.313 5 2.002 2.207-.352 2.433-.218 1.213.721-1.18.907-.7 1.02 2.25.533 2.538-.42 3.75-.245 3.75.541 0 .67.847.941 2 .639 1.546-.404 1.997-.033 1.985 1.634-.013 1.758-.194 1.879-.985.656-.833-1.289-.972-1.259-.985.212-.014 1.569-2.08 1.712-24.805 1.715-23.928.004-24.795-.065-24.938-1.962-.091-1.212.499-1.992 1.54-2.035 1.391-.058 1.335-.238-.312-1.018-1.419-.673-.403-.805 3.5-.455 4.047.362 5.104.212 4-.569-1.208-.855-1.075-.969.685-.585 1.202.262 3.227-.259 4.5-1.156 1.381-.974 1.749-1.635.911-1.64-1.126-.006-1.095-.263.155-1.301.858-.711 1.411-2.061 1.231-3-.181-.938-.363-8.966-.405-17.839-.076-15.822-.12-16.147-2.327-16.846-1.237-.392-3.483-.636-4.989-.543-3.869.241-14.066-2.171-12.714-3.007.696-.43.33-.901-.964-1.239-1.147-.3-1.837-.143-1.532.35.304.492-.143.628-.993.302-.851-.327-1.298-.996-.993-1.489.531-.859-.815-1.28-3.19-.998-.619.073-1.865-.996-2.769-2.376-.904-1.379-2.177-2.399-2.829-2.265-.653.134-1.207-.318-1.232-1.006-.025-.687-.477-1.137-1.005-1-.528.138-2.022-1.325-3.319-3.25-1.311-1.946-1.847-3.5-1.206-3.5.634 0 .2-1.125-.965-2.5s-1.653-2.387-1.084-2.25c1.498.362 1.27-.657-.554-2.481-1.097-1.097-1.481-2.93-1.243-5.928.197-2.471-.089-4.348-.662-4.356-.554-.009-.488-.346.146-.75.752-.479 1.044-3.344.839-8.235-.173-4.125-.359-8.625-.413-10-.081-2.057-.29-2.234-1.176-1-.867 1.208-.98 1.061-.583-.75.328-1.501.024-2.25-.914-2.25-.773 0-1.293-.562-1.156-1.25.139-.695-.74-1.263-1.979-1.279-1.226-.016-2.801-.669-3.5-1.452-1.088-1.218-1.019-1.232.479-.098 1.497 1.132 1.75 1.082 1.75-.346 0-1.427.909-1.609 6.25-1.247 3.438.233 7.375.953 8.75 1.601"/><path fill="#C81975FD" stroke="#C81975FD" d="M259.25 93.82c-1.237.175-2.25.724-2.25 1.219 0 .495-1.615.839-3.589.765-1.974-.074-3.927.412-4.34 1.081-.413.668-1.723 1.288-2.911 1.378-1.188.089-2.16.537-2.16.994 0 .457-.787.698-1.75.537-.978-.164-1.64.258-1.5.956.148.739-.795 1.25-2.309 1.25-1.699 0-2.316.393-1.836 1.17.477.772.19.965-.843.569-.862-.331-1.873-.295-2.248.08-.374.375-.081.742.653.816.733.074.321.463-.917.866-1.237.403-2.25 1.018-2.25 1.368 0 .35-2.25.716-5 .814-2.75.099-5-.24-5-.752s-3.375-.931-7.5-.931c-4.667 0-7.5.405-7.5 1.072 0 .589-1.012.989-2.25.889-3.784-.307-4.898-.009-4.2 1.12.425.687-.193.961-1.691.75-1.484-.208-2.266.133-2.109.919.138.688-.65 1.25-1.75 1.25s-2 .45-2 1-.538 1-1.195 1c-1.66 0-6.805 5.08-6.805 6.718 0 .74-.647 1.593-1.437 1.896-.827.318-1.179 1.223-.83 2.133.402 1.046.211 1.337-.563.858-.741-.458-1.17-.007-1.17 1.229 0 2.457-1.922 3.201-7.832 3.034-4.599-.129-4.616-.142-1.168-.868l3.5-.737-3.191-.131c-1.755-.073-3.469.318-3.809.868-.34.55-1.749 1-3.13 1-1.382 0-3.192.679-4.022 1.509-.83.83-1.923 1.254-2.429.941-.505-.312-.919-.065-.919.55s-.45.84-1 .5c-.55-.34-1 .084-1 .941s-.62 1.559-1.379 1.559c-.758 0-1.938 1.35-2.621 3s-1.693 3-2.244 3c-.59 0-.524.575.163 1.403.894 1.077.865 1.523-.127 1.921-.989.396-.999.537-.042.597.688.043 1.25 1.096 1.25 2.338 0 1.243.9 2.822 2 3.509 1.1.687 2 1.755 2 2.373 0 .619.788 1.859 1.75 2.756.963.897 2.249 2.525 2.859 3.617.61 1.092 1.622 1.986 2.25 1.986.628 0 1.254.45 1.391 1s.587.888 1 .75c.413-.137.75.317.75 1.009 0 .693.863 1.799 1.918 2.458 1.055.658 1.815 1.779 1.689 2.49-.539 3.04-1.809 5.793-2.674 5.793-.513 0-.933.675-.933 1.5s-.45 1.5-1 1.5-1 .852-1 1.893-.667 2.149-1.483 2.462c-.831.319-1.228 1.234-.903 2.081.319.832-.143 2.235-1.026 3.119-.884.883-1.349 2.023-1.033 2.533.315.51-.091 1.591-.902 2.402-.811.811-1.242 2.367-.957 3.457.286 1.091-.185 2.685-1.046 3.546-.861.861-1.294 2.272-.962 3.137.332.864.018 1.934-.697 2.376-.716.442-1.258 2.296-1.207 4.119.052 1.824-.381 3.889-.962 4.589-1.317 1.588-1.12 21.655.218 22.119 1.525.53 1.113 6.157-.574 7.844-.88.88-1.278 2.341-.933 3.428.334 1.052.127 1.895-.466 1.895-.587 0-1.067.852-1.067 1.893s-.704 2.163-1.563 2.493c-.86.33-1.313 1.006-1.006 1.502.307.496-.143 1.171-1 1.5-.857.329-1.278 1.051-.935 1.605.342.554.145 1.007-.437 1.007s-1.059.702-1.059 1.559-.451 1.28-1.002.94c-.551-.341-1.44.533-1.975 1.941-.535 1.408-1.686 2.56-2.557 2.56s-1.306.45-.966 1c.34.55.145 1-.432 1-.578 0-2.459 1.463-4.181 3.25-1.722 1.788-3.526 3.137-4.009 3-.483-.138-.878.677-.878 1.809s-.45 1.781-1 1.441c-.585-.362-1 .676-1 2.5 0 2.107.375 2.886 1.158 2.403.793-.491.979-.037.593 1.442-.311 1.187-.171 1.915.31 1.618.48-.298 1.447.377 2.147 1.498.7 1.122 1.792 2.039 2.426 2.039.633 0 1.408.667 1.721 1.483.332.864 1.228 1.23 2.148.877.868-.333 1.448-.213 1.288.267-.16.48-.034.873.28.873.315 0 1.327.755 2.25 1.679 1.863 1.862 2.498 12.445.679 11.321-.565-.349-1 .473-1 1.891 0 1.38-.65 2.873-1.445 3.318-1.245.697-1.215 1.291.22 4.3.916 1.92 2.241 4.086 2.945 4.812 1.749 1.806 1.614 3.521-.22 2.817-.914-.35-1.5-.001-1.5.893 0 .808-.42 1.469-.933 1.469-1.35 0-2.308 3.666-1.567 6 .349 1.1 1.354 2 2.234 2 .88 0 1.308.292.951.648-.357.357.16 1.37 1.149 2.25 1.296 1.156 1.837 3.213 1.942 7.386.079 3.182-.23 5.553-.688 5.27-.854-.527-2.062 4.983-2.071 9.446-.002 1.375.668 3.789 1.489 5.364.822 1.576 1.494 3.488 1.494 4.25s.45 1.386 1 1.386.888.338.75.75c-.137.413.16.822.66.91.501.089 1.277.816 1.725 1.617.51.912 1.757 1.275 3.34.973 1.389-.266 2.525-.036 2.525.51 0 .611 6.416 1.052 16.704 1.146 13.146.12 17.05.466 18.331 1.626.895.81 1.933 1.167 2.307.793.839-.839 6.764 4.694 6.128 5.723-.252.408.214 1 1.036 1.316.822.315 1.494 1.289 1.494 2.164 0 .874.445 1.315.989.979.565-.35.735.049.396.933-.349.908.065 1.796 1.006 2.156.878.338 1.347 1.02 1.04 1.516-.307.496.146 1.172 1.006 1.502.859.33 1.563 1.478 1.563 2.552s.45 1.674 1 1.334c.55-.34 1 .309 1 1.441 0 1.132.45 2.059 1 2.059s1 .927 1 2.059c0 1.132.45 1.781 1 1.441.55-.34 1 .309 1 1.441 0 1.132.45 2.059 1 2.059s1 .927 1 2.059c0 1.132.45 1.781 1 1.441.55-.34 1 .309 1 1.441 0 1.132.45 2.059 1 2.059s1 .9 1 2 .45 2 1 2 1 .675 1 1.5.498 1.5 1.107 1.5.841.692.517 1.538c-.336.875.049 1.783.893 2.107.816.313 1.483 1.447 1.483 2.521 0 1.074.45 1.674 1 1.334.55-.34 1 .309 1 1.441 0 1.132.498 2.059 1.107 2.059s.841.692.517 1.538c-.336.875.049 1.783.893 2.107.816.313 1.483 1.421 1.483 2.462 0 1.041.477 1.893 1.059 1.893s.803.414.491.919c-.313.506.111 1.599.941 2.429.83.83 1.509 1.991 1.509 2.581 0 .589.498 1.071 1.107 1.071s.848.675.531 1.5c-.466 1.214.514 1.533 5.143 1.675 8.549.262 13.642-.241 14.369-1.418.371-.601 2.155-.807 4.164-.481 2.25.365 4.174.07 5.35-.821 1.01-.765 3.272-1.406 5.027-1.423 1.755-.018 3.469-.482 3.809-1.032.34-.55 2.193-1 4.118-1 2.396 0 3.274-.365 2.785-1.158-.491-.793-.037-.98 1.441-.593 1.186.31 2.156.129 2.156-.402s.45-.687 1-.347c.55.34 1 .089 1-.558 0-.676.834-.957 1.963-.662 1.08.283 2.485-.115 3.123-.883.637-.768 2.004-1.397 3.036-1.397 1.033 0 1.878-.498 1.878-1.107s.692-.841 1.538-.517c.889.341 1.787-.06 2.129-.95.325-.848 1.225-1.298 2-1 .775.297 1.665-.127 1.978-.943.313-.816 1.421-1.483 2.462-1.483 1.041 0 1.893-.47 1.893-1.044 0-.574.563-.915 1.25-.757.688.158 1.324-.109 1.415-.594.28-1.501 2.827-2.651 2.921-1.319.048.668.434.427.857-.536.424-.962 1.581-1.75 2.57-1.75 2.991 0 1.29-3.539-1.824-3.796-1.479-.121-2.839-.667-3.022-1.213-.184-.545-.92-.991-1.636-.991-.716 0-2.559-.652-4.095-1.449-1.536-.797-3.162-1.22-3.614-.941-.452.28-.822.031-.822-.551 0-.582-.9-1.059-2-1.059s-2-.45-2-1-1.125-1-2.5-1-2.5-.36-2.5-.799c0-.44-1.575-1.369-3.5-2.065-3.448-1.247-4.772-4.232-2.5-5.636.55-.34 1-1.498 1-2.573s.395-2.736.877-3.691c1.643-3.251 3.123-8.871 3.123-11.857 0-1.638.406-3.407.903-3.929 1.192-1.254 2.013-8.25 2.722-23.2l.581-12.25h-2.496c-2.834 0-3.71-1.597-3.71-6.761 0-3.521-1.376-9.017-3.123-12.475-.482-.955-.877-2.418-.877-3.25 0-.833-.45-1.514-1-1.514s-1-1.125-1-2.5-.45-2.5-1-2.5-1-.647-1-1.438c0-1.732-5.988-12.923-7.168-13.395-.457-.184-.832-1.196-.832-2.25s-.398-1.917-.883-1.917c-.486 0-1.133-.787-1.439-1.75-.72-2.272-3.707-7.132-5.928-9.646-.962-1.09-1.75-2.571-1.75-3.293 0-.721-.42-1.311-.933-1.311-.513 0-1.222-.914-1.577-2.032-.355-1.118-1.735-3.122-3.068-4.455-1.332-1.332-2.422-2.826-2.422-3.319 0-.494-1.35-2.31-3-4.037-1.65-1.726-3-3.539-3-4.027 0-.489-1.8-2.744-4-5.011s-4-4.341-4-4.609c0-.627-2.698-3.926-6.5-7.948-1.65-1.745-3.146-3.823-3.325-4.618-.179-.794-.741-1.594-1.25-1.777-.509-.184-.925-1.196-.925-2.25s-.45-1.917-1-1.917-1-.9-1-2-.45-2-1-2-1-1.125-1-2.5-.45-2.5-1-2.5-1-1.575-1-3.5-.477-3.5-1.061-3.5c-.711 0-.909-3.7-.601-11.25.501-12.268 1.39-18.464 2.772-19.318.49-.303.89-1.648.89-2.991 0-1.343.45-2.441 1-2.441s1-.585 1-1.301c0-1.839 2.352-6.682 3.25-6.691.413-.004.75-.908.75-2.008s.374-2 .831-2c.457 0 1.467-1.237 2.243-2.75.777-1.512 2.203-3.478 3.169-4.367 1.358-1.25 1.757-3.224 1.757-8.691 0-3.891.45-7.352 1-7.692.55-.34 1-1.357 1-2.26 0-2.45 6.215-12.24 7.77-12.24.742 0 1.07-.45.73-1-.34-.55.102-1 .983-1 .88 0 2.567-.9 3.747-2 1.181-1.1 2.737-2 3.459-2 .721 0 1.311-.45 1.311-1s.873-1 1.941-1 2.219-.45 2.559-1c.34-.55 1.716-1 3.059-1 1.343 0 2.441-.45 2.441-1s1.35-1 3-1 3-.401 3-.891c0-.837 2.305-1.401 11.256-2.753 2.066-.312 4.005-.97 4.309-1.462.304-.492 2.776-.894 5.494-.894s4.941-.407 4.941-.903c0-.497 2.138-1.148 4.75-1.447 8.191-.937 12.68-1.743 14.75-2.65 1.1-.482 3.575-1.096 5.5-1.366 5.772-.807 11.57-2.244 12.988-3.218.874-.6.915-.824.119-.648-.668.147-1.978-.496-2.911-1.429s-1.604-1.278-1.491-.768c.112.511-.684.787-1.769.613-1.085-.174-1.713-.736-1.395-1.25.317-.514-.382-.934-1.553-.934-1.172 0-2.766-.635-3.542-1.411-.805-.805-2.344-1.167-3.585-.842-1.358.355-1.934.181-1.536-.464.377-.61-.435-1.033-1.984-1.033-1.442 0-3.02-.713-3.508-1.583-.487-.871-1.537-1.334-2.334-1.028-.796.305-2.147-.144-3.002-.999s-2.196-1.309-2.98-1.008c-.783.3-2.374-.119-3.535-.932-1.161-.814-2.985-1.251-4.052-.971-1.067.279-2.568-.014-3.335-.65-1.296-1.076-30.509-2.088-36.345-1.259"/><path fill="#0091D8FD" stroke="#0091D8FD" d="M393 98.889c-.825.49-3.75 1.168-6.5 1.507-10.851 1.333-13.534 1.85-14.065 2.71-.304.492-2.075.894-3.935.894-1.86 0-3.66.45-4 1-.34.55-1.915 1-3.5 1s-3.16.45-3.5 1c-.34.55-2.14 1-4 1-1.86 0-3.66.45-4 1-.34.55-1.716 1-3.059 1-1.343 0-2.441.45-2.441 1s.9 1 2 1 2 .45 2 1 .629 1 1.398 1c.77 0 3.965 1.35 7.102 3 3.137 1.65 6.584 3 7.661 3 1.076 0 1.679.45 1.339 1-.34.55.309 1 1.441 1 1.132 0 2.059.366 2.059.813 0 .448 1.575 1.432 3.5 2.187 1.925.755 3.5 1.739 3.5 2.187 0 .447.694.813 1.542.813.848 0 2.508.9 3.688 2 1.181 1.1 2.737 2 3.459 2 .721 0 1.311.374 1.311.831 0 .457 1.238 1.47 2.75 2.25 1.513.78 4.1 2.654 5.75 4.164 1.65 1.51 3.346 2.748 3.769 2.75 1.157.007 13.731 12.814 13.731 13.986 0 .561.45 1.019 1 1.019s1 .675 1 1.5.338 1.507.75 1.516c.849.017 4.447 7.678 6.131 13.055 1.389 4.434 1.46 10.929.119 10.929-.55 0-1 1.035-1 2.301 0 2.634-2.132 7.68-3.25 7.691-1.351.014-.787 2.59 1 4.569.963 1.067 2.389 3.177 3.169 4.689.78 1.513 1.793 2.75 2.25 2.75.457 0 .831.9.831 2s.338 2.004.75 2.008c.898.009 3.25 4.852 3.25 6.691 0 .716.34 1.301.757 1.301.829 0 3.243 7.059 3.243 9.484 0 .834.45 1.516 1 1.516.564 0 1 2.823 1 6.47 0 8.411-4.197 16.53-8.545 16.53-1.304 0-1.519.513-.947 2.25.407 1.238 1.105 5.4 1.549 9.25.444 3.85 1.095 8.575 1.446 10.5.476 2.606.369 3.117-.417 2-.777-1.104-1.059.677-1.071 6.75-.009 4.823-.43 8.25-1.015 8.25-.55 0-1 .906-1 2.014 0 1.107-.45 2.907-1 4-.55 1.092-1.45 2.886-2 3.986-2.508 5.017-3.823 6.79-8.509 11.484C407.317 317.665 396.354 324 392.56 324c-1.188 0-2.587.406-3.11.903-1.055 1.003-7.253 1.932-18.2 2.728l-7.25.527v3.362c0 1.849-.45 3.64-1 3.98-.55.34-1 2.14-1 4 0 1.86-.45 3.66-1 4-.55.34-1 1.491-1 2.559s-.45 1.941-1 1.941-1 .734-1 1.632c0 1.752-7.059 9.063-10.737 11.118-1.23.688-3.115 1.25-4.19 1.25-1.075 0-2.233.45-2.573 1-.34.55-2.391 1-4.559 1-3.234 0-3.941.348-3.941 1.941 0 1.068.45 2.219 1 2.559.55.34 1 1.716 1 3.059 0 1.343.45 2.441 1 2.441s1 1.098 1 2.441c0 1.343.45 2.719 1 3.059.55.34 1 1.69 1 3s.45 2.66 1 3c.55.34 1 1.491 1 2.559s.45 1.941 1 1.941 1 .68 1 1.511c0 1.408 2.891 8.611 5.156 12.844.691 1.292.666 1.653-.082 1.191-.591-.365-1.074.038-1.074.895s-.565 1.559-1.255 1.559c-.691 0-3.167 1.8-5.502 4-2.336 2.2-4.503 4-4.816 4-.314 0-1.162.563-1.887 1.25-2.532 2.403-5.09 4.261-7.804 5.669-3.183 1.651-3.564 3.081-.819 3.081 1.054 0 2.066.338 2.25.752.456 1.029 13.09 5.248 15.714 5.248 1.166 0 2.119.45 2.119 1s1.323 1 2.941 1c1.618 0 3.219.45 3.559 1 .34.55 1.915 1 3.5 1s3.16.45 3.5 1c.34.55 2.14 1 4 1 1.86 0 3.66.45 4 1 .34.55 2.391 1 4.559 1s3.941.405 3.941.899c0 .495 1.913 1.149 4.25 1.453 4.476.583 13.531 2.139 17.75 3.05 1.375.297 4.638.71 7.25.919 4.426.352 4.75.218 4.75-1.971 0-1.293.45-2.35 1-2.35s1-1.548 1-3.441c0-1.893.45-3.719 1-4.059.55-.34 1-2.14 1-4 0-1.86.45-3.66 1-4 .55-.34 1-1.716 1-3.059 0-1.343.45-2.441 1-2.441s1-.929 1-2.065c0-1.162 2.187-4.195 5-6.935 2.75-2.679 5-5.312 5-5.852s.416-1.131.924-1.315c.508-.183 1.039-2.917 1.181-6.075.143-3.157.419-5.732.614-5.721.607.033 7.281-9.008 7.281-9.865 0-.446 1.092-1.761 2.427-2.921 1.972-1.715 4.172-2.207 11.75-2.629 9.859-.548 25.146-2.02 33.073-3.184l4.75-.698v-10.794c0-5.936-.527-13.076-1.171-15.866-.956-4.144-.911-5.577.248-7.826.781-1.515 1.646-2.979 1.921-3.254 1.112-1.109 3.002-5.053 3.002-6.266 0-.711-.876-1.924-1.946-2.695-1.071-.772-1.719-1.771-1.441-2.221.278-.45-.197-.818-1.054-.818s-1.559-.45-1.559-1 .395-1 .879-1c.483 0 1.429-1.33 2.103-2.956.984-2.377.96-3.553-.123-6-.741-1.674-1.714-3.044-2.162-3.044-.448 0-.587-.37-.307-.822.279-.452-.144-2.078-.941-3.614-2.653-5.113-1.061-9.564 3.421-9.564 1.106 0 2.29-.45 2.63-1 .34-.55 1.491-1 2.559-1s1.941-.45 1.941-1 .9-1 2-1c1.558 0 2-.667 2-3.014 0-2.896-.287-3.776-2.844-8.722-.636-1.23-1.156-2.918-1.156-3.75 0-.833-.45-1.514-1-1.514s-1-1.098-1-2.441c0-1.343-.45-2.719-1-3.059-.55-.34-1-1.716-1-3.059 0-1.343-.45-2.441-1-2.441s-1-.906-1-2.014c0-1.107-.52-3.02-1.156-4.25-2.426-4.692-2.844-5.754-2.844-7.222 0-.833-.45-1.514-1-1.514s-1-1.098-1-2.441c0-1.343-.45-2.719-1-3.059-.55-.34-1-1.491-1-2.559s-.45-1.941-1-1.941-1-.681-1-1.514c0-.832-.413-2.295-.918-3.25-3.635-6.872-5.082-11.761-5.082-17.166 0-3.274-.45-6.23-1-6.57-.55-.34-1-1.749-1-3.13 0-1.382-.701-3.214-1.558-4.07-.856-.857-1.32-2.175-1.031-2.929.289-.754.09-1.371-.442-1.371-.533 0-.969-.675-.969-1.5s-.45-1.5-1-1.5-1-.9-1-2-.45-2-1-2-1-.605-1-1.345-.9-2.16-2-3.155c-1.1-.995-2.001-2.303-2.001-2.905-.001-.602-1.165-2.445-2.587-4.095-1.422-1.65-3.319-4.237-4.214-5.75-.896-1.512-1.982-2.75-2.414-2.75-.431 0-.784-.445-.784-.989 0-.543-.787-1.931-1.75-3.084a1491.35 1491.35 0 0 0-3.999-4.761c-2.754-3.266-2.807-4.324-.305-6.127 1.071-.772 1.719-1.771 1.441-2.221-.278-.45.149-.818.949-.818.801 0 2.851-2.894 4.559-6.437 2.632-5.456 3.105-7.589 3.105-14 0-4.375-.421-7.563-1-7.563-.55 0-1-.874-1-1.943 0-3.37-5.664-12.057-7.861-12.057-.552 0-1.29-.9-1.639-2s-1.279-2-2.067-2c-.788 0-1.433-.45-1.433-1s-1.152-1-2.559-1c-1.407 0-2.322-.383-2.033-.851.289-.468-1.372-1.449-3.691-2.18-2.319-.731-4.667-1.645-5.217-2.031-2.857-2.003-29.728-3.698-32.5-2.049"/></svg>